<svg xmlns="http://www.w3.org/2000/svg" xmlns:xlink="http://www.w3.org/1999/xlink" version="1.1" width="256" height="256" viewBox="0 0 256 256" xml:space="preserve">
<desc>Created with Fabric.js 1.7.22</desc>
<defs>
</defs>
<g transform="translate(128 128) scale(0.72 0.72)" style="">
	<g style="stroke: none; stroke-width: 0; stroke-dasharray: none; stroke-linecap: butt; stroke-linejoin: miter; stroke-miterlimit: 10; fill: none; fill-rule: nonzero; opacity: 1;" transform="translate(-175.05 -175.05000000000004) scale(3.89 3.89)" >
	<path d="M 83.502 58.364 h -0.239 c 3.024 0 5.498 -2.474 5.498 -5.498 v -1.096 c 0 -3.024 -2.474 -5.498 -5.498 -5.498 h -0.654 c 3.024 0 5.498 -2.474 5.498 -5.498 v -1.096 c 0 -3.024 -2.474 -5.498 -5.498 -5.498 l -22.987 0.037 C 62.048 11.017 57.338 5.358 47.991 7.53 c -0.626 13.143 -8.948 31.06 -17.418 31.55 l 0 -2.253 c 0 -1.608 -1.474 -2.924 -3.276 -2.924 l -23.022 0 C 2.474 33.904 1 35.22 1 36.828 l 0 43.146 c 0 1.608 1.474 2.924 3.276 2.924 l 23.022 0 c 1.802 0 3.276 -1.316 3.276 -2.924 v -2.626 c 3.021 3.324 10.389 5.376 17.393 5.201 l 30.995 0 c 3.024 0 5.498 -2.474 5.498 -5.498 l 0 -1.096 c 0 -3.024 -2.474 -5.498 -5.498 -5.498 h 4.541 c 3.024 0 5.498 -2.474 5.498 -5.498 v -1.096 C 89 60.838 86.526 58.364 83.502 58.364 z" style="stroke: none; stroke-width: 1; stroke-dasharray: none; stroke-linecap: butt; stroke-linejoin: miter; stroke-miterlimit: 10; fill: rgb(251,206,157); fill-rule: nonzero; opacity: 1;" transform=" matrix(1 0 0 1 0 0) " stroke-linecap="round" />
	<path d="M 30.573 79.974 c 0 1.608 -1.474 2.924 -3.276 2.924 l -23.022 0 C 2.474 82.898 1 81.583 1 79.974 l 0 -43.146 c 0 -1.608 1.474 -2.924 3.276 -2.924 l 23.022 0 c 1.802 0 3.276 1.316 3.276 2.924 L 30.573 79.974 z" style="stroke: none; stroke-width: 1; stroke-dasharray: none; stroke-linecap: butt; stroke-linejoin: miter; stroke-miterlimit: 10; fill: rgb(60,90,153); fill-rule: nonzero; opacity: 1;" transform=" matrix(1 0 0 1 0 0) " stroke-linecap="round" />
	<path d="M 82.609 47.271 h -9.13 c -0.553 0 -1 -0.447 -1 -1 c 0 -0.552 0.447 -1 1 -1 h 9.13 c 0.553 0 1 0.448 1 1 C 83.609 46.824 83.162 47.271 82.609 47.271 z" style="stroke: none; stroke-width: 1; stroke-dasharray: none; stroke-linecap: butt; stroke-linejoin: miter; stroke-miterlimit: 10; fill: rgb(0,0,0); fill-rule: nonzero; opacity: 1;" transform=" matrix(1 0 0 1 0 0) " stroke-linecap="round" />
	<path d="M 83.263 59.363 h -9.783 c -0.553 0 -1 -0.447 -1 -1 s 0.447 -1 1 -1 h 9.783 c 0.553 0 1 0.447 1 1 S 83.815 59.363 83.263 59.363 z" style="stroke: none; stroke-width: 1; stroke-dasharray: none; stroke-linecap: butt; stroke-linejoin: miter; stroke-miterlimit: 10; fill: rgb(0,0,0); fill-rule: nonzero; opacity: 1;" transform=" matrix(1 0 0 1 0 0) " stroke-linecap="round" />
	<path d="M 78.961 71.456 h -5.481 c -0.553 0 -1 -0.447 -1 -1 s 0.447 -1 1 -1 h 5.481 c 0.553 0 1 0.447 1 1 S 79.514 71.456 78.961 71.456 z" style="stroke: none; stroke-width: 1; stroke-dasharray: none; stroke-linecap: butt; stroke-linejoin: miter; stroke-miterlimit: 10; fill: rgb(0,0,0); fill-rule: nonzero; opacity: 1;" transform=" matrix(1 0 0 1 0 0) " stroke-linecap="round" />
	<path d="M 27.298 83.898 H 4.276 C 1.918 83.898 0 82.139 0 79.975 V 36.828 c 0 -2.164 1.918 -3.924 4.276 -3.924 h 23.022 c 2.357 0 4.275 1.76 4.275 3.924 v 1.092 c 7.419 -1.837 14.829 -18.046 15.419 -30.437 l 0.036 -0.755 l 0.736 -0.171 c 4 -0.93 7.014 -0.437 9.217 1.507 c 3.882 3.428 5.079 11.433 3.747 25.15 l 21.879 -0.035 c 3.585 0 6.5 2.915 6.5 6.498 v 1.097 c 0 2.18 -1.08 4.113 -2.732 5.292 c 2.016 1.104 3.386 3.247 3.386 5.704 v 1.096 c 0 2.263 -1.162 4.259 -2.921 5.423 c 1.892 1.137 3.16 3.21 3.16 5.574 v 1.096 c 0 3.535 -2.838 6.42 -6.355 6.496 c 1.123 1.169 1.814 2.755 1.814 4.5 v 1.097 c 0 3.583 -2.915 6.498 -6.498 6.498 H 47.966 c -6.38 0.171 -12.7 -1.442 -16.393 -4.024 v 0.45 C 31.573 82.139 29.655 83.898 27.298 83.898 z M 4.276 34.904 C 3.021 34.904 2 35.767 2 36.828 v 43.146 c 0 1.061 1.021 1.924 2.276 1.924 h 23.022 c 1.255 0 2.275 -0.863 2.275 -1.924 v -5.213 l 1.74 1.914 c 2.725 2.997 9.725 5.053 16.627 4.873 h 31.021 c 2.48 0 4.498 -2.018 4.498 -4.498 v -1.097 c 0 -2.48 -2.018 -4.498 -4.498 -4.498 v -2 h 4.541 c 2.48 0 4.498 -2.018 4.498 -4.498 v -1.096 c 0 -2.48 -2.018 -4.499 -4.498 -4.499 h -0.239 v -2 c 2.48 0 4.498 -2.018 4.498 -4.498 V 51.77 c 0 -2.48 -2.018 -4.499 -4.498 -4.499 h -0.653 v -2 c 2.48 0 4.498 -2.018 4.498 -4.498 v -1.097 c 0 -2.48 -2.018 -4.498 -4.498 -4.498 l -24.098 0.039 l 0.116 -1.106 c 1.412 -13.507 0.44 -21.537 -2.971 -24.549 c -1.557 -1.374 -3.76 -1.772 -6.712 -1.212 c -0.94 13.784 -9.558 31.222 -18.314 31.729 l -1.058 0.061 v -3.313 c 0 -1.061 -1.021 -1.924 -2.275 -1.924 H 4.276 z" style="stroke: none; stroke-width: 1; stroke-dasharray: none; stroke-linecap: butt; stroke-linejoin: miter; stroke-miterlimit: 10; fill: rgb(0,0,0); fill-rule: nonzero; opacity: 1;" transform=" matrix(1 0 0 1 0 0) " stroke-linecap="round" />
	<path d="M 30.573 61.473 c -0.552 0 -1 -0.447 -1 -1 V 39.081 c 0 -0.552 0.448 -1 1 -1 s 1 0.448 1 1 v 21.392 C 31.573 61.025 31.125 61.473 30.573 61.473 z" style="stroke: none; stroke-width: 1; stroke-dasharray: none; stroke-linecap: butt; stroke-linejoin: miter; stroke-miterlimit: 10; fill: rgb(0,0,0); fill-rule: nonzero; opacity: 1;" transform=" matrix(1 0 0 1 0 0) " stroke-linecap="round" />
	<circle cx="16.138" cy="69.708" r="4.988" style="stroke: none; stroke-width: 1; stroke-dasharray: none; stroke-linecap: butt; stroke-linejoin: miter; stroke-miterlimit: 10; fill: rgb(249,249,249); fill-rule: nonzero; opacity: 1;" transform="  matrix(1 0 0 1 0 0) "/>
	<path d="M 16.141 75.7 c -3.302 0 -5.988 -2.686 -5.988 -5.987 s 2.686 -5.988 5.988 -5.988 s 5.988 2.687 5.988 5.988 S 19.443 75.7 16.141 75.7 z M 16.141 65.725 c -2.199 0 -3.988 1.789 -3.988 3.988 c 0 2.198 1.789 3.987 3.988 3.987 s 3.988 -1.789 3.988 -3.987 C 20.129 67.514 18.34 65.725 16.141 65.725 z" style="stroke: none; stroke-width: 1; stroke-dasharray: none; stroke-linecap: butt; stroke-linejoin: miter; stroke-miterlimit: 10; fill: rgb(0,0,0); fill-rule: nonzero; opacity: 1;" transform=" matrix(1 0 0 1 0 0) " stroke-linecap="round" />
</g>
</g>
</svg>