<svg xmlns="http://www.w3.org/2000/svg" xmlns:xlink="http://www.w3.org/1999/xlink" version="1.1" width="256" height="256" viewBox="0 0 256 256" xml:space="preserve">
<desc>Created with Fabric.js 1.7.22</desc>
<defs>
</defs>
<g transform="translate(128 128) scale(0.72 0.72)" style="">
	<g style="stroke: none; stroke-width: 0; stroke-dasharray: none; stroke-linecap: butt; stroke-linejoin: miter; stroke-miterlimit: 10; fill: none; fill-rule: nonzero; opacity: 1;" transform="translate(-175.05 -175.05000000000004) scale(3.89 3.89)" >
	<path d="M 89 19.447 h -2.126 c -0.553 0 -1 0.448 -1 1 s 0.447 1 1 1 H 88 V 73.42 l -32.65 -0.111 c -1.846 0.076 -3.402 0.555 -4.618 1.415 c -1.488 1.032 -2.904 1.07 -3.883 0.104 c -0.866 -0.854 -1.247 -2.457 -0.322 -3.832 c 1.734 -2.354 3.733 -3.813 8.327 -3.813 h 26.943 c 0.553 0 1 -0.447 1 -1 V 13.479 c 0 -0.552 -0.447 -1 -1 -1 H 54.854 c -4.792 0 -8.078 1.36 -9.854 4.005 c -1.775 -2.646 -5.061 -4.005 -9.853 -4.005 H 8.203 c -0.552 0 -1 0.448 -1 1 v 52.704 c 0 0.553 0.448 1 1 1 h 26.944 c 4.594 0 6.592 1.459 8.302 3.779 c 0.949 1.409 0.568 3.012 -0.297 3.866 c -0.979 0.965 -2.394 0.93 -3.875 -0.099 c -1.224 -0.866 -2.781 -1.345 -4.671 -1.422 L 2 73.42 V 21.447 h 1.125 c 0.552 0 1 -0.448 1 -1 s -0.448 -1 -1 -1 H 1 c -0.552 0 -1 0.448 -1 1 v 53.977 c 0 0.266 0.106 0.521 0.294 0.708 C 0.481 75.319 0.735 75.424 1 75.424 c 0.001 0 0.002 0 0.003 0 l 33.564 -0.117 c 1.454 0.061 2.65 0.415 3.562 1.062 c 1.195 0.828 2.323 1.158 3.324 1.158 c 1.286 0 2.362 -0.545 3.102 -1.274 c 0.166 -0.164 0.306 -0.344 0.444 -0.526 c 0.138 0.182 0.278 0.362 0.444 0.526 c 0.74 0.729 1.814 1.273 3.1 1.273 c 1.003 0 2.135 -0.331 3.335 -1.163 c 0.904 -0.641 2.1 -0.995 3.508 -1.055 l 33.609 0.116 c 0.002 0 0.003 0 0.004 0 c 0.265 0 0.519 -0.104 0.706 -0.292 C 89.895 74.944 90 74.689 90 74.424 V 20.447 C 90 19.895 89.553 19.447 89 19.447 z M 35.147 65.183 H 9.203 V 14.479 h 25.944 c 4.859 0 7.751 1.436 8.853 4.373 v 42.963 c 0 0.553 0.448 1 1 1 s 1 -0.447 1 -1 V 18.821 c 1.108 -2.921 4.007 -4.342 8.854 -4.342 h 25.943 v 50.704 H 54.854 c -5.624 0 -8.067 2.137 -9.853 4.518 C 43.236 67.339 40.796 65.183 35.147 65.183 z" style="stroke: none; stroke-width: 1; stroke-dasharray: none; stroke-linecap: butt; stroke-linejoin: miter; stroke-miterlimit: 10; fill: rgb(48,61,66); fill-rule: nonzero; opacity: 1;" transform=" matrix(1 0 0 1 0 0) " stroke-linecap="round" />
	<path d="M 36.17 27.55 c -0.251 0 -0.503 -0.094 -0.697 -0.283 c -2.586 -2.514 -6.053 -2.513 -9.106 -2.505 l -12.538 0 c -0.552 0 -1 -0.448 -1 -1 s 0.448 -1 1 -1 l 12.535 0 c 3.099 0 7.334 -0.01 10.503 3.071 c 0.396 0.385 0.405 1.018 0.02 1.414 C 36.691 27.449 36.431 27.55 36.17 27.55 z" style="stroke: none; stroke-width: 1; stroke-dasharray: none; stroke-linecap: butt; stroke-linejoin: miter; stroke-miterlimit: 10; fill: rgb(48,61,66); fill-rule: nonzero; opacity: 1;" transform=" matrix(1 0 0 1 0 0) " stroke-linecap="round" />
	<path d="M 36.17 37.55 c -0.251 0 -0.503 -0.094 -0.697 -0.283 c -2.586 -2.515 -6.053 -2.507 -9.106 -2.505 l -12.538 0 c -0.552 0 -1 -0.448 -1 -1 s 0.448 -1 1 -1 l 12.535 0 c 3.099 -0.005 7.334 -0.011 10.503 3.071 c 0.396 0.385 0.405 1.018 0.02 1.414 C 36.691 37.449 36.431 37.55 36.17 37.55 z" style="stroke: none; stroke-width: 1; stroke-dasharray: none; stroke-linecap: butt; stroke-linejoin: miter; stroke-miterlimit: 10; fill: rgb(48,61,66); fill-rule: nonzero; opacity: 1;" transform=" matrix(1 0 0 1 0 0) " stroke-linecap="round" />
	<path d="M 36.17 47.55 c -0.251 0 -0.503 -0.094 -0.697 -0.283 c -2.586 -2.514 -6.053 -2.512 -9.106 -2.505 l -12.538 0 c -0.552 0 -1 -0.448 -1 -1 s 0.448 -1 1 -1 l 12.535 0 c 3.099 -0.009 7.334 -0.01 10.503 3.071 c 0.396 0.385 0.405 1.018 0.02 1.414 C 36.691 47.448 36.431 47.55 36.17 47.55 z" style="stroke: none; stroke-width: 1; stroke-dasharray: none; stroke-linecap: butt; stroke-linejoin: miter; stroke-miterlimit: 10; fill: rgb(48,61,66); fill-rule: nonzero; opacity: 1;" transform=" matrix(1 0 0 1 0 0) " stroke-linecap="round" />
	<path d="M 36.17 57.55 c -0.251 0 -0.503 -0.094 -0.697 -0.283 c -2.586 -2.515 -6.047 -2.531 -9.106 -2.505 H 13.83 c -0.552 0 -1 -0.447 -1 -1 s 0.448 -1 1 -1 h 12.535 c 3.096 -0.026 7.334 -0.012 10.503 3.071 c 0.396 0.385 0.405 1.018 0.02 1.414 C 36.691 57.448 36.431 57.55 36.17 57.55 z" style="stroke: none; stroke-width: 1; stroke-dasharray: none; stroke-linecap: butt; stroke-linejoin: miter; stroke-miterlimit: 10; fill: rgb(48,61,66); fill-rule: nonzero; opacity: 1;" transform=" matrix(1 0 0 1 0 0) " stroke-linecap="round" />
	<path d="M 53.83 27.55 c -0.261 0 -0.521 -0.101 -0.717 -0.303 c -0.385 -0.396 -0.376 -1.029 0.02 -1.414 c 3.168 -3.082 7.398 -3.077 10.503 -3.071 l 12.534 0 c 0.553 0 1 0.448 1 1 s -0.447 1 -1 1 l -12.537 0 c -3.061 -0.004 -6.521 -0.009 -9.105 2.505 C 54.333 27.456 54.081 27.55 53.83 27.55 z" style="stroke: none; stroke-width: 1; stroke-dasharray: none; stroke-linecap: butt; stroke-linejoin: miter; stroke-miterlimit: 10; fill: rgb(48,61,66); fill-rule: nonzero; opacity: 1;" transform=" matrix(1 0 0 1 0 0) " stroke-linecap="round" />
	<path d="M 53.83 37.55 c -0.261 0 -0.521 -0.101 -0.717 -0.303 c -0.385 -0.396 -0.376 -1.029 0.02 -1.414 c 3.168 -3.082 7.398 -3.08 10.503 -3.071 l 12.534 0 c 0.553 0 1 0.448 1 1 s -0.447 1 -1 1 l -12.537 0 c -3.061 -0.003 -6.521 -0.009 -9.105 2.505 C 54.333 37.456 54.081 37.55 53.83 37.55 z" style="stroke: none; stroke-width: 1; stroke-dasharray: none; stroke-linecap: butt; stroke-linejoin: miter; stroke-miterlimit: 10; fill: rgb(48,61,66); fill-rule: nonzero; opacity: 1;" transform=" matrix(1 0 0 1 0 0) " stroke-linecap="round" />
	<path d="M 53.83 47.55 c -0.261 0 -0.521 -0.102 -0.717 -0.303 c -0.385 -0.396 -0.376 -1.029 0.02 -1.414 c 3.168 -3.082 7.398 -3.083 10.503 -3.071 l 12.534 0 c 0.553 0 1 0.448 1 1 s -0.447 1 -1 1 l -12.537 0 c -3.061 -0.003 -6.521 -0.009 -9.105 2.505 C 54.333 47.456 54.081 47.55 53.83 47.55 z" style="stroke: none; stroke-width: 1; stroke-dasharray: none; stroke-linecap: butt; stroke-linejoin: miter; stroke-miterlimit: 10; fill: rgb(48,61,66); fill-rule: nonzero; opacity: 1;" transform=" matrix(1 0 0 1 0 0) " stroke-linecap="round" />
	<path d="M 53.83 57.55 c -0.261 0 -0.521 -0.102 -0.717 -0.303 c -0.385 -0.396 -0.376 -1.029 0.02 -1.414 c 3.17 -3.083 7.427 -3.097 10.503 -3.071 H 76.17 c 0.553 0 1 0.447 1 1 s -0.447 1 -1 1 H 63.633 c -3.061 -0.025 -6.52 -0.009 -9.105 2.505 C 54.333 57.456 54.081 57.55 53.83 57.55 z" style="stroke: none; stroke-width: 1; stroke-dasharray: none; stroke-linecap: butt; stroke-linejoin: miter; stroke-miterlimit: 10; fill: rgb(48,61,66); fill-rule: nonzero; opacity: 1;" transform=" matrix(1 0 0 1 0 0) " stroke-linecap="round" />
</g>
</g>
</svg>